<svg width="183" height="25" viewBox="0 0 183 25" fill="none" xmlns="http://www.w3.org/2000/svg"><path d="M13.9348 0.249023C6.78163 0.249023 0.979492 6.06371 0.979492 13.2324V22.5062H4.68102V13.2324C4.68102 8.11322 8.82673 3.95855 13.9348 3.95855C19.0429 3.95855 23.1886 8.11322 23.1886 13.2324V22.5062H26.8902V13.2324C26.8902 6.06371 21.088 0.249023 13.9348 0.249023Z" fill="white"/><path d="M19.4874 22.5055V19.5379H8.3828V22.5055H19.4874Z" fill="white"/><path d="M19.4874 16.5679V13.6003H8.3828V16.5679H19.4874Z" fill="white"/><path d="M9.02051 10.6347H18.8388C17.9134 8.87265 16.0626 7.66706 13.9343 7.66706C11.8059 7.66706 9.95514 8.87265 9.02051 10.6347Z" fill="white"/><path d="M42.5948 19.6997C45.3247 19.7924 47.9713 18.5498 49.6184 16.3982L49.6369 16.3704L47.0644 14.3209L47.0459 14.3487C46.0002 15.7583 44.5381 16.4724 42.8076 16.4075C41.3548 16.3611 40.0407 15.7398 39.1061 14.6733C38.19 13.6254 37.718 12.2343 37.7643 10.7505C37.8198 9.27594 38.3936 7.93124 39.3837 6.95749C40.3924 5.97447 41.7434 5.45513 43.2055 5.51078C44.9082 5.56642 46.3056 6.37324 47.268 7.8385L47.2865 7.86633L49.9978 6.02084L49.9793 5.99302C48.471 3.68384 45.9909 2.30204 43.1963 2.2093C43.0945 2.2093 42.9927 2.20003 42.8909 2.20003C40.6885 2.20003 38.6156 3.0254 37.0147 4.55557C35.3398 6.1414 34.3774 8.3022 34.2941 10.6299C34.2108 12.9855 35.0252 15.2205 36.5798 16.9268C38.1437 18.6332 40.2813 19.6255 42.5948 19.6997Z" fill="white"/><path fill-rule="evenodd" clip-rule="evenodd" d="M91.844 8.21974C90.5762 7.05123 88.8735 6.40207 87.0597 6.40207C85.2459 6.40207 83.5432 7.05123 82.2755 8.21974C80.9429 9.44388 80.2118 11.1688 80.2118 13.0699C80.2118 14.9618 80.9429 16.6682 82.2755 17.8923C83.5432 19.0608 85.2459 19.71 87.0597 19.71C88.8735 19.71 90.5762 19.0701 91.844 17.8923C93.1765 16.6682 93.9076 14.9525 93.9076 13.0699C93.9076 11.1688 93.1765 9.44388 91.844 8.21974ZM87.0597 16.5847C85.1071 16.5847 83.6358 15.0731 83.6358 13.0699C83.6358 11.0483 85.1071 9.51807 87.0597 9.51807C89.0123 9.51807 90.4837 11.039 90.4837 13.0699C90.4837 15.0731 89.0123 16.5847 87.0597 16.5847Z" fill="white"/><path fill-rule="evenodd" clip-rule="evenodd" d="M100.783 19.2741C101.468 19.5523 102.263 19.71 103.022 19.71C104.669 19.71 106.215 19.0794 107.362 17.9294C108.602 16.696 109.259 15.0174 109.259 13.0699C109.259 9.83337 107.075 6.40207 103.022 6.40207C101.745 6.40207 99.9129 6.8843 98.9598 8.23828L98.7007 8.60923V6.73592H95.3323V23.8925H98.7007V17.5306L98.9598 17.9016C99.3762 18.4858 100.005 18.9588 100.783 19.2741ZM102.328 9.54589C104.253 9.54589 105.808 11.1224 105.808 13.0607C105.808 15.0174 104.281 16.5476 102.328 16.5476C100.635 16.5476 98.821 15.2122 98.821 13.0607C98.821 11.0946 100.366 9.54589 102.328 9.54589Z" fill="white"/><path fill-rule="evenodd" clip-rule="evenodd" d="M72.5682 9.61573C73.1512 9.61573 73.7157 9.79193 74.1969 10.1258C74.3542 10.2278 74.5022 10.3576 74.6318 10.506C75.1315 11.0346 75.4091 11.7302 75.4091 12.4628V19.446H78.7775V12.4442C78.796 10.3205 78.2778 8.71616 77.2506 7.67749C76.4085 6.8243 75.2333 6.38843 73.7619 6.38843C72.5127 6.38843 70.8562 6.80575 69.9956 8.51214L69.718 9.00365V6.73156H66.3497V19.4553H69.718V12.9265C69.718 12.8894 69.718 12.8616 69.718 12.8245V12.4721C69.7273 10.8955 70.9951 9.61573 72.5682 9.61573Z" fill="white"/><path d="M123.131 6.73624H119.762V13.5061H119.753C119.67 14.9992 118.42 16.1955 116.912 16.1955C116.57 16.1955 116.227 16.1306 115.903 16.01C115.302 15.8246 114.802 15.4072 114.478 14.8323C114.21 14.3871 114.062 13.8771 114.062 13.3485V13.0981C114.062 13.0702 114.062 13.0331 114.062 13.0053V6.73624H110.693V13.3856C110.675 15.5093 111.193 17.1136 112.22 18.1523C113.062 19.0055 114.238 19.4413 115.709 19.4413C116.94 19.4413 118.55 19.2559 119.466 17.6515L119.633 17.3547C119.559 19.5063 118.198 21.0643 115.959 21.0364C115.265 21.055 114.802 21.0179 113.997 20.8231C113.405 20.684 112.822 20.3873 112.239 20.1183L111.054 23.0025C112.646 23.9206 114.571 24.2916 116.523 24.2452C120.16 24.2452 122.992 21.4445 123.103 17.1043V17.0858L123.131 6.73624Z" fill="white"/><path d="M60.8052 6.73394V8.50524L60.6479 8.2363C60.2407 7.65205 59.5189 7.17908 58.7509 6.8545C58.0661 6.57628 57.2703 6.41863 56.493 6.41863C54.8458 6.41863 53.3004 7.04925 52.153 8.1992C50.913 9.43262 50.2559 11.1112 50.2559 13.0587C50.2559 15.0062 50.913 16.6848 52.153 17.9182C53.3097 19.0681 54.8458 19.6987 56.493 19.6987C57.8718 19.6987 59.7503 19.1423 60.6479 17.8904L60.8052 17.6307V19.4484H64.1736V6.73394H60.8052ZM57.187 16.5827C55.253 16.5827 53.6798 15.0062 53.6798 13.068C53.6798 11.1112 55.2252 9.581 57.187 9.581C58.8804 9.581 60.6942 10.9164 60.6942 13.068C60.6942 15.0433 59.1581 16.5827 57.187 16.5827Z" fill="white"/><path d="M130.277 19.5717V2.05273H135.099C138.007 2.05273 140.235 2.81809 141.781 4.34879C143.327 5.8795 144.1 8.0531 144.1 10.8696C144.1 13.6402 143.319 15.7832 141.758 17.2986C140.212 18.814 137.984 19.5717 135.076 19.5717H130.277ZM135.053 17.6659C137.166 17.6659 138.849 17.1684 140.104 16.1735C141.36 15.1785 141.987 13.4106 141.987 10.8696C141.987 6.26217 139.684 3.95846 135.076 3.95846H132.39V17.6659H135.053Z" fill="#898989"/><path d="M151.663 19.8013C150.469 19.8013 149.398 19.5181 148.449 18.9517C147.515 18.3854 146.78 17.597 146.245 16.5868C145.724 15.5765 145.464 14.4361 145.464 13.1657C145.464 11.9258 145.724 10.8084 146.245 9.81341C146.78 8.81845 147.515 8.04544 148.449 7.49439C149.398 6.92803 150.469 6.64485 151.663 6.64485C152.857 6.64485 153.929 6.92803 154.878 7.49439C155.827 8.04544 156.569 8.81845 157.105 9.81341C157.641 10.8084 157.909 11.9258 157.909 13.1657C157.909 14.4361 157.641 15.5765 157.105 16.5868C156.585 17.5817 155.85 18.37 154.901 18.9517C153.952 19.5181 152.873 19.8013 151.663 19.8013ZM151.663 18.0792C152.459 18.0792 153.179 17.8649 153.822 17.4363C154.48 17.0077 154.993 16.4261 155.36 15.6913C155.743 14.9413 155.934 14.0994 155.934 13.1657C155.934 12.2778 155.75 11.4666 155.383 10.7318C155.016 9.99709 154.503 9.42308 153.845 9.00979C153.202 8.58119 152.475 8.36689 151.663 8.36689C150.867 8.36689 150.14 8.57354 149.482 8.98683C148.839 9.40012 148.334 9.97413 147.967 10.7089C147.599 11.4436 147.416 12.2625 147.416 13.1657C147.416 14.0994 147.599 14.9413 147.967 15.6913C148.334 16.4414 148.839 17.0307 149.482 17.4593C150.14 17.8726 150.867 18.0792 151.663 18.0792Z" fill="#898989"/><path d="M165.363 19.8013C164.169 19.8013 163.105 19.5181 162.172 18.9517C161.238 18.3854 160.511 17.597 159.99 16.5868C159.47 15.5765 159.21 14.4361 159.21 13.1657C159.21 11.9258 159.47 10.8084 159.99 9.81341C160.511 8.81845 161.238 8.04544 162.172 7.49439C163.105 6.92803 164.169 6.64485 165.363 6.64485C166.787 6.64485 167.988 7.01222 168.968 7.74696C169.963 8.46639 170.606 9.44604 170.897 10.6859H168.807C168.562 9.98179 168.126 9.42308 167.499 9.00979C166.886 8.58119 166.175 8.36689 165.363 8.36689C164.567 8.36689 163.848 8.57354 163.205 8.98683C162.577 9.40012 162.08 9.97413 161.713 10.7089C161.345 11.4283 161.161 12.2472 161.161 13.1657C161.161 14.1147 161.338 14.9642 161.69 15.7143C162.057 16.449 162.562 17.0307 163.205 17.4593C163.848 17.8726 164.567 18.0792 165.363 18.0792C166.236 18.0792 166.986 17.842 167.613 17.3674C168.256 16.8929 168.685 16.2653 168.899 15.4847H170.989C170.713 16.8317 170.063 17.8879 169.037 18.6532C168.027 19.4186 166.802 19.8013 165.363 19.8013Z" fill="#898989"/><path d="M177.752 19.8013C176.145 19.8013 174.836 19.4186 173.826 18.6532C172.815 17.8879 172.203 16.8317 171.989 15.4847H174.032C174.201 16.2959 174.591 16.9312 175.203 17.3904C175.831 17.8496 176.688 18.0792 177.775 18.0792C178.663 18.0792 179.367 17.9108 179.887 17.5741C180.423 17.2373 180.691 16.7552 180.691 16.1276C180.691 15.6377 180.53 15.2474 180.209 14.9566C179.903 14.6504 179.505 14.4208 179.015 14.2678C178.54 14.1147 177.905 13.9616 177.109 13.8085C176.114 13.6096 175.31 13.4106 174.698 13.2116C174.101 12.9973 173.588 12.6605 173.16 12.2013C172.731 11.7421 172.517 11.1069 172.517 10.2956C172.517 9.14755 172.946 8.25209 173.803 7.60919C174.675 6.9663 175.785 6.64485 177.132 6.64485C178.51 6.64485 179.658 7.00456 180.576 7.724C181.495 8.44343 182.061 9.43073 182.275 10.6859H180.461C180.278 9.90525 179.895 9.32358 179.313 8.94091C178.732 8.55823 178.005 8.36689 177.132 8.36689C176.29 8.36689 175.632 8.52762 175.157 8.84906C174.698 9.15521 174.469 9.5838 174.469 10.1349C174.469 10.5635 174.614 10.9002 174.905 11.1451C175.196 11.39 175.555 11.5814 175.984 11.7191C176.413 11.8416 177.017 11.9794 177.798 12.1324C178.823 12.3314 179.658 12.5457 180.301 12.7753C180.943 12.9896 181.494 13.3493 181.954 13.8545C182.413 14.3443 182.643 15.0331 182.643 15.9209C182.643 17.1149 182.214 18.0639 181.357 18.768C180.5 19.4568 179.298 19.8013 177.752 19.8013Z" fill="#898989"/></svg>